<svg xmlns="http://www.w3.org/2000/svg" xmlns:xlink="http://www.w3.org/1999/xlink" id="Layer_1" x="0px" y="0px" viewBox="0 0 323.5 59.6" style="enable-background:new 0 0 323.5 59.6;" xml:space="preserve"><g>	<path d="M318,36.8c-1.3-0.8-1.6,0.3-2.2,1c-1.6,2-3.2,4-5,5.7c-1.2,1.1-2.1,0.5-2.1-1.1c0-0.7,0.1-1.4,0.2-2.1  c1.7-9.3,4.9-18,8.9-26.5c1.6-3.4,3.3-6.6,5-10c-1.3-0.5-2.5-1.1-3.8-1.5c-3.2-1.1-4.9-0.6-6.5,2.4c-1.3,2.4-2.3,4.9-3.4,7.4  c-1.3,3.1-2.5,6.2-3.7,9.3c-3.7-3.2-7.4-3.7-11.6-1.2c-6.6,4-10,10.1-11.1,17.5c-0.4,2.9-2.3,4.4-4.5,5.8c-0.8,0.5-1.2,0-1.4-0.7  c-0.1-0.4,0-0.7,0.1-1.1c0.7-4.1,2.8-7.6,4.5-11.2c1-2,1.8-4.1,2.5-6.2c0.8-2.6-0.3-4.5-3-5.2c-3-0.7-5.9-0.6-7.9,2.1  c-2.7,3.5-5.2,7.1-7.8,10.7c-0.4,0.6-0.8,1.3-1.1,1.9c-0.2-0.1-0.3-0.2-0.5-0.3c2-4.3,6.1-12.7,6-13.2c-0.2-0.4-2.3-1-3.5-1.4  c-3.6-1.2-5.4-0.5-6.8,3c-1.6,4.2-2.9,8.5-4.4,12.8c-0.2,0.6-0.4,1.4-0.9,1.8c-1.7,1.6-3.5,3.1-5.4,4.4c-1.4,0.9-3,1.6-4.6,2.1  c-2,0.6-3.5-0.3-3.8-2.3c-0.2-1.6,0.1-3.3,0.1-5c0.1,0,0.1-7.3,6.1-12.2c0.9-0.7,1.8-1.5,2.1-1.4s0.8,1.4,0.9,2.5s-0.9,5.3-2.9,7.2  c-0.4,0.4-1.1,1-1.6,1s-1-0.2-1.4-0.4c-0.3,1.4-0.5,2.7-0.6,4c3.8,0.9,6.5-0.1,9.1-3.4c2.6-3.4,2.9-7.4,1.7-11.4  c-0.5-1.7-1.9-2.8-3.6-3.2c-4.3-1-8.2-0.3-11.5,2.6c-5.9,5.2-8.5,11.8-8.2,19.7c0,0.7,0.2,1.5,0.3,2.1c-0.3,0.1-0.6,0.1-0.9,0.2  c-0.2-0.6-0.6-1.1-1.3-1.6c-1-0.8-2.2-1.5-3.4-1.9c-3.1-1.1-6.3-2.1-9.4-3.2c-2.4-0.8-4.8-1.6-7-2.7c-2.4-1.3-3.3-3.6-2.4-6.2  c0.6-1.9,1.5-3.7,2.7-5.3c3.7-4.9,8.6-8.5,14.2-11c1.2-0.5,2.6-0.8,3.9-1c1.7-0.1,2.7,0.8,2.5,2.6c-0.2,1.6-0.6,3.3-1.2,4.9  c-2.1,5.4-4.6,10.7-11.1,12.7c1.2,1.5,2.2,3.1,3.5,4.4c1.7,1.7,3.8,1.6,5.7,0.1c1-0.8,1.9-1.7,2.6-2.7c2.9-4.2,4.6-8.9,5.8-13.8  c0.6-2.6,1-5.1,0.2-7.7c-1.7-5.5-7.8-7.7-12.6-7.3c-3.3,0.3-6.4,1.4-9.1,3.2c-3.1,2.1-6.6,1.6-10.2,2.4c1.1-2.1,2.1-4,3.2-6  c-1.8-0.6-3.4-1.4-5.2-1.8c-2-0.5-3.6,0.2-4.7,2c-1.1,1.8-2,3.8-2.9,5.7c-0.3,0.7-0.7,1-1.5,0.9c-2.5-0.2-5.1-0.1-7.5-0.4  c-3-0.4-6.1-0.7-7.9-3.9c-0.4,1.6-0.9,3.1-1,4.6c-0.1,1.9,0.5,2.9,2.4,3.5c1.8,0.5,3.7,0.9,5.6,1.1c2.4,0.3,4.8,0.3,7.3,0.4  c-0.2,0.5-0.4,0.9-0.5,1.3c-1.9,6.1-4.1,12.2-5.7,18.4c-0.9,3.4-2.9,5.7-5.4,7.8c-0.4,0.3-1.1,0.6-1.6,0.4c-0.6-0.2-0.5-1-0.4-1.7  c0.2-0.7,0.1-0.5,0.2-0.7c1.6-4,3.1-8.1,4.8-12.1c1.2-2.9,2.8-5.6,4.2-8.6c-1.7-0.6-3.2-1.2-4.7-1.7c-2.6-0.7-4.2-0.1-5.5,2.3  c-0.8,1.5-1.5,3.1-2.2,4.7c-3,6-6.6,11.7-11,16.8c-0.5,0.5-1.6,1.2-1.9,1.1c-0.3-0.1-0.7-1.4-0.4-2.5c0.9-2.7,1.7-5.4,2.9-8  c1.9-4.3,4-8.4,6-12.8c-1.4-0.5-2.9-1.2-4.4-1.6c-2.9-0.9-4.7-0.2-5.9,2.6c-2.6,5.7-5,11.4-6.2,17.6c-0.2,1.2-0.7,2.2-1.5,3.1  c-3.3,3.8-7.4,6-12.3,6.7c-6.3,0.9-10.5-3.2-9.3-9.5c0.6-3.2,1.5-6.4,2.7-9.5c2.4-6.3,5.7-12.2,10.5-17c1.9-1.9,4.1-3.3,6.8-3.4  c2.2-0.1,3,0.9,2.6,3c-0.8,4.2-4.7,8.1-9.2,8.9c1,1.3,1.8,2.6,2.9,3.7c2.6,2.5,4.9,2.3,7.4-0.3c0.7-0.7,1.3-1.5,1.6-2.4  c1.1-3,2.4-6,3.1-9.1c1.1-4.6-1.5-8.5-6.2-9.3c-2.5-0.4-5.1-0.4-7.6,0.1c-5.1,0.9-9.2,3.9-12.6,7.8c-6.3,7.3-11,15.4-12.1,25.2  c-0.3,2.9-1.9,4.5-3.9,6c-1.3,0.9-2.2,0.4-2.1-1.2c0-1.1,0.2-2.2,0.4-3.3c1.9-9.3,5.2-18,9.3-26.6c1.4-2.9,2.9-5.8,4.4-8.7  c-1.1-0.4-2.1-0.9-3.2-1.3c-3.9-1.5-5.5-0.9-7.5,2.8c-0.2,0.4-0.4,0.7-0.5,1.1c-1.6,3.8-3.2,7.6-4.8,11.5c-0.5,1.1-0.9,2.3-1.2,3.2  c-1.5-0.8-2.8-1.7-4.2-2.1c-3.2-1-6.1,0-8.7,1.9c-5.4,3.8-8.6,9.1-9.8,15.6c-0.4,2.3-1.1,4.3-2.9,5.8c-0.8,0.6-2.1,1.6-2.7,1.3  c-1.2-0.6-0.6-2-0.2-3c1.2-3.2,2.6-6.3,3.9-9.4c1-2.3,2-4.5,2.8-6.8c0.7-2.1,0-3.6-1.5-4.6c-1.9-1.2-6.9-1.4-8.8,1  c-1.7,2.1-3.5,4.1-5.1,6.3s-3,4.6-4.4,6.9c-0.1-0.1-0.3-0.1-0.4-0.2c2-4.4,4-8.8,6-13.3c-1.1-0.4-2.3-1-3.6-1.4  c-3.5-1.1-5.3-0.4-6.7,3c-1.4,3.3-2.8,6.6-3.6,10.1c-0.7,3.3-2.4,5.6-5,7.5c-2.2,1.6-4.3,3.2-7,3.7c-1.3,0.2-2.3-0.1-2.9-0.9  c-0.2-0.2-0.3-0.5-0.4-0.8c-0.1-0.7-0.2-1.3-0.2-2c-0.2-3.1,0.2-6.3,1.3-9.4c1-2.6,4.1-6.1,4.9-6.7s1.7-1.4,2-1.3s0.4,1.5,0.6,2.3  c0,0.1,0,0.3,0,0.4c0,2.5-0.7,4.8-2.3,6.7c-0.6,0.6-1.4,1.2-2.2,1.3c-0.3,0-0.8-0.6-0.9-0.2c-0.1,0.4,0,0,0,0.1  c-0.3,1.3-1.7,3.5-0.6,4c1.1,0.4,4.5,0,6.6-1.4c4.7-3.2,5.3-9.7,4.1-13.3c-0.6-1.9-2-3.2-3.9-3.6c-4.7-1-8.9,0.1-12.3,3.5  C37.4,26,35,32.4,35.4,39.7c0,0.2-0.1-0.2,0.1,0.7c0.2,0.8-0.9,0.3-1.3,0.5c-0.7-0.7-1.8-1.4-3.3-2.1c-3-1.3-6.1-2.1-9.2-3.2  c-2.4-0.8-4.9-1.5-7.2-2.6c-3-1.5-4-4.1-2.9-7.3c0.6-1.7,1.5-3.3,2.6-4.7c3.6-4.7,8.2-8.2,13.5-10.6c1.4-0.7,3.1-1.1,4.7-1.2  C34,9,34.9,10,34.8,11.6c-0.1,1.5-0.4,3-0.9,4.3c-2.1,5.7-4.5,11.2-11.1,13.3c0.5,0.8,0.9,1.7,1.5,2.6c2.8,4,6.1,4.1,9.2,0.4  c3.3-4,5-8.8,6.3-13.7c0.7-2.6,1.3-5.3,0.7-8c-1.3-6.3-8-8.8-12.9-8.2s-9.1,2.9-13,5.7C9.9,11.1,6.1,15,4,20.3  c-2.3,5.8-1,10.5,3.8,14.3c4.1,3.2,8.8,4.9,13.7,6.2c0.8,0.2,1.5,0.7,2.2,1.1c-0.5,0.8-0.5,1.3-2,2.7s-6.6,3.5-10.3,4.1  c-3.5,0.6-6.9,0.6-9.5-2.7c-0.3,0.7-0.5,1.3-0.7,1.9C0,52.4,1.8,56,6.3,57c2,0.4,4.2,0.6,6.2,0.3c7.5-1,13.8-4.6,19.3-9.6  c1.7-1.2,3.5-2.2,5.3-2.7c1.9,2.6,5.2,4.2,8.8,3.8c3.2-0.3,5.9-1.8,8.4-3.6c1.3-1,2.6-2.1,4-3.2c0.1,0.9,0.1,1.7,0.2,2.4  c0.3,3,2.1,4.9,4.9,5.1c1,0.1,1.5-0.2,2-1.2c2.1-4.3,4.2-8.6,6.5-12.8c1.6-2.8,3.5-5.3,5.3-8c-0.4,2.2-1.1,4.3-1.7,6.4  c-0.9,3.4-1.8,6.8-1.1,10.3c0.6,3.1,3,4.8,6.1,4c1.7-0.4,3.2-1.5,4.8-2.5c1-0.6,1.8-1.6,2.7-2.4c2.3,6.6,9.1,7.7,13.4,2.6  c0.7-0.8,1.8-1.6,2-2.5c0.3-0.8-0.7-4.2-0.4-5.2c0.2-1-1.8,1-2.3,1.5c-1.3,1.1-2.5,0.6-2.9-1c-0.2-0.7-0.2-1.4-0.3-2  c0.6-5.3,2.8-9.8,6.5-13.5c0.6-0.7,1.8-1.1,2.7-1.1c1.7-0.1,2.9,1.7,2.1,3.3c-1.5,3.1-4.4,8.4-4.5,10.1s0.3,2.9,0.5,4.2  c0.1,0.6,0.2,1.2,0.4,1.7c0.2,0.6,0.3,1.1,0.5,1.7c0.2,1.4,0.7,2.6,1.5,3.5c1.8,2.1,4.8,2.7,7.8,1c1.1-0.6,2.1-1.4,3.1-2.2  c0.6-0.5,1.1-1,1.7-1.6c0.3,1.1,0.4,2,0.7,2.9c1.8,6.4,6.3,9.9,13,9.9c5.2,0,9.8-1.8,13.7-5c2.2-1.8,4.2-3.9,6.3-5.9  c0.2,0.3,0.4,0.7,0.6,1c1.7,3.3,8.6,4,10.5,0.8c1.3-2.2,2.9-4.1,4.4-6.2c0.3-0.4,0.5-0.8,0.8-1.2c0.1,1.5,0.1,2.9,0.2,4.3  c0.5,3.6,3.4,5.4,6.7,4.1c1.5-0.6,2.9-1.5,4.2-2.5c1.1-0.8,1.9-2,3-3.2c0.2,0.8,0.3,1.3,0.5,1.7c0.9,3,3.5,4.7,6.5,4.2  c1.2-0.2,2.5-0.8,3.5-1.6c3.4-2.3,5.8-5.4,7.7-8.9c0.7-1.2,0.3-1.9-0.8-2.6c-1.1-0.7-1.6,0-2,0.8c-0.6,1-1.2,1.9-1.9,2.8  c-1,1.2-2.1,2.4-3.4,3.3c-1.1,0.9-2,0.3-2-1.1c0-0.7,0.1-1.5,0.2-2.2c1.4-8.1,4.2-15.8,7.5-23.3c1-2.4,1.1-2.4,3.4-2.3  c-1.5,2.6-3.2,5.3-4.5,8.2c-1.5,3.4-1.5,7,0.7,10.1c1.2,1.7,2.8,3.2,4.5,4.4c3.9,2.8,8.4,4.4,13,5.5c2,0.5,2.3,1.2,0.8,2.8  c-0.2,0.2-0.4,0.4-0.6,0.6c-4,2.9-8.4,4.5-13.3,4.8c-2.7,0.2-5.1-0.5-6.8-2.8c-2.9,4.9-0.8,10,4.7,10.9c2.5,0.4,5.1,0.3,7.6-0.1  c6.6-1.2,12.2-4.7,17.2-9c0.4-0.3,0.7-0.7,1-1c1.6-0.6,3.2-1.1,4.9-1.4c1.9,2.3,4.9,3.5,8.3,3.2c4-0.3,7.1-2.4,10-4.8  c0.8-0.6,1.5-1.3,2.4-2c0.1,1.1,0.1,1.9,0.2,2.8c0.3,2.8,2.2,4.6,4.8,4.8c1.1,0.1,1.7-0.2,2.2-1.3c2.9-6.9,6.5-13.4,11-19.4  c0.2-0.3,0.5-0.6,0.7-0.9c-0.2,1.5-0.7,2.8-1.1,4.1c-1.1,3.5-2,7-1.9,10.7c0.2,4.5,3.6,7,7.6,5.3c0.8-0.3,1.6-0.8,2.3-1.3  c1.3-1,2.5-2.1,3.9-3.3c0.1,0.2,0.2,0.3,0.2,0.5c2.3,5.8,7.9,7.1,12.4,2.8c0.9-0.8,1.8-1.8,2.4-2.6s-0.4-3.7-0.6-5.2  c-0.2-1.2-1,0.3-1.5,0.8c-1.4,1.2-2.5,0.8-3-0.9c-0.2-0.7-0.2-1.4-0.4-2.1c0.7-5.3,2.8-9.9,6.6-13.7c1.2-1.2,2.7-1.3,3.8-0.5  c1,0.7,1.6,1.5,0.9,2.8c-1.3,2.6-3,5.5-3.8,7.7s0,6.9,0.7,9.7c0.6,2.9,2.3,5.4,5.3,5.8c1.8,0.3,3.4-0.5,4.8-1.4  c3.4-2.3,5.9-5.3,7.9-8.9C319.4,38.1,319.2,37.5,318,36.8z"></path></g></svg>